# xmcd CD database file generated by Grip 2.96
# 
# Track frame offsets:
#       150
#       30955
#       49295
#       65978
#       89563
#       120340
#       145553
#       175698
#       196703
#       220635
#       240163
#       250995
#       263355
# 
# Disc length: 3725 seconds
# 
# Revision: 0
# Processed by: cddbd v1.4PL0 Copyright (c) Steve Scherf et al.
# Submitted via: Grip 2.96
# 
DISCID=a30e8b0d
DTITLE=The Blue Band - The Blue Band With Bob Norr/Molly Nova
DYEAR=1900
DGENRE=
TTITLE0=Simulation Simulation
TTITLE1=Liven It Up
TTITLE2=Too Close To The Fire
TTITLE3=No Money Down
TTITLE4=I Think I Love You Too Much
TTITLE5=This Old Fool
TTITLE6=I Ain't Got The Fever No More
TTITLE7=Late For Dinner
TTITLE8=I Wanna Love You
TTITLE9=Mr. Big Stuff
TTITLE10=Patty C
TTITLE11=Arc Welded
TTITLE12=Roll It Over
EXTD=
EXTT0=
EXTT1=
EXTT2=
EXTT3=
EXTT4=
EXTT5=
EXTT6=
EXTT7=
EXTT8=
EXTT9=
EXTT10=
EXTT11=
EXTT12=
PLAYORDER=
